inDegrees=yes
name=IK-live
DataType=double
version=3
OpenSimVersion=4.1
endheader
time	pelvis_tilt	pelvis_list	pelvis_rotation	pelvis_tx	pelvis_ty	pelvis_tz	hip_flexion_r	hip_adduction_r	hip_rotation_r	knee_angle_r	ankle_angle_r	subtalar_angle_r	mtp_angle_r	hip_flexion_l	hip_adduction_l	hip_rotation_l	knee_angle_l	ankle_angle_l	subtalar_angle_l	mtp_angle_l	lumbar_extension	lumbar_bending	lumbar_rotation	neck_flex	neck_latbend	neck_rot	arm_flex_r	arm_add_r	arm_rot_r	elbow_flex_r	pro_sup_r	wrist_flex_r	wrist_dev_r	arm_flex_l	arm_add_l	arm_rot_l	elbow_flex_l	pro_sup_l	wrist_flex_l	wrist_dev_l
0	13.51605362327167	6.950707057402594	32.43523663747168	0.2341366603171506	0.04326292228651554	-1.326684523481465	-22.57117169827992	-1.591976316804377	-3.241458145969817	5.899560354604904	2.451982624139334	1.987972377786656	0	-24.74788768789517	-3.395140484746916	-11.58000132048591	9.793848132074926	-0.4439473045988533	4.250290820099795	0	-21.37711699760957	1.659277491615732	3.206407148933037	0	0	0	89.50479912034929	-14.99846429499532	-0.1079202493456593	75.11887516844303	45.07969763555796	0	5.007427465146177	89.60722944155771	-15.01539932542599	-0.1393084114833337	75.11993564639815	45.04879510196177	0	5.007427465146177
3.5248302	-11.25616698449296	-29.78730857920583	-86.86011486182139	0.2341366603171506	0.04326292228651554	-1.326684523481465	-22.57117169827992	-1.591976316804377	-3.241458145969817	5.899560354604904	2.451982624139334	1.987972377786656	0	-24.74788768789517	-3.395140484746916	-11.58000132048591	9.793848132074926	-0.4439473045988533	4.250290820099795	0	-21.37711699760957	1.659277491615732	3.206407148933037	0	0	0	0.7732690625446615	-15.17653286262954	33.32038535086843	6.886689755728952	24.85104346344295	0	0.001869976054180004	5.864868137227493	-13.22948776079066	43.91227365850478	6.698024203645605	33.46873666007855	0	0.001869976054180004
4.4123946	31.51636552132037	-15.73434622876065	7.376385626198071	0.2341366603171506	0.04326292228651554	-1.326684523481465	-22.57117169827992	-1.591976316804377	-3.241458145969817	5.899560354604904	2.451982624139334	1.987972377786656	0	-24.74788768789517	-3.395140484746916	-11.58000132048591	9.793848132074926	-0.4439473045988533	4.250290820099795	0	-21.37711699760957	1.659277491615732	3.206407148933037	0	0	0	0.7863338362234163	-15.17647569922541	33.30342855041168	7.115318257334995	24.8946112983168	0	0.02173176921821745	5.876761324571402	-13.23006123306413	43.88701138103209	6.932845339001128	33.49016624026213	0	0.02173176921821745
5.0019105	18.86657970339351	8.107452400594976	57.51341670083374	0.2341366603171506	0.04326292228651554	-1.326684523481465	-22.57117169827992	-1.591976316804377	-3.241458145969817	5.899560354604904	2.451982624139334	1.987972377786656	0	-24.74788768789517	-3.395140484746916	-11.58000132048591	9.793848132074926	-0.4439473045988533	4.250290820099795	0	-21.37711699760957	1.659277491615732	3.206407148933037	0	0	0	0.7851240862580191	-15.17648100291739	33.30500617683524	7.093954081500339	24.89051480000148	0	0.0198554229689551	5.875660296971657	-13.23000802547354	43.88936471308164	6.910929789012	33.48815552504554	0	0.0198554229689551
5.6377129	31.69222436487037	-3.702216335105007	21.76152925818394	0.2341366603171506	0.04326292228651554	-1.326684523481465	-22.57117169827992	-1.591976316804377	-3.241458145969817	5.899560354604904	2.451982624139334	1.987972377786656	0	-24.74788768789517	-3.395140484746916	-11.58000132048591	9.793848132074926	-0.4439473045988533	4.250290820099795	0	-21.37711699760957	1.659277491615732	3.206407148933037	0	0	0	0.785513835935416	-15.17647929285706	33.3044971225213	7.100515491161477	24.89183801674318	0	0.02046193607107143	5.876014996366436	-13.23002518111614	43.88860521667467	6.917637090240842	33.48880547640864	0	0.02046193607107143
6.1262236	27.72549454974689	-11.75801893681989	0.1663309035704911	0.2341366603171506	0.04326292228651554	-1.326684523481465	-22.57117169827992	-1.591976316804377	-3.241458145969817	5.899560354604904	2.451982624139334	1.987972377786656	0	-24.74788768789517	-3.395140484746916	-11.58000132048591	9.793848132074926	-0.4439473045988533	4.250290820099795	0	-21.37711699760957	1.659277491615732	3.206407148933037	0	0	0	0.7853695325969673	-15.17647992687646	33.30468610096015	7.098016965966461	24.89134699320457	0	0.02023733512292574	5.875883702688196	-13.23001882050587	43.88888728371695	6.915077540458012	33.48856429398821	0	0.02023733512292574
7.1515996	21.88666504012086	-18.79569430775243	-21.52870708596824	0.2341366603171506	0.04326292228651554	-1.326684523481465	-22.57117169827992	-1.591976316804377	-3.241458145969817	5.899560354604904	2.451982624139334	1.987972377786656	0	-24.74788768789517	-3.395140484746916	-11.58000132048591	9.793848132074926	-0.4439473045988533	4.250290820099795	0	-21.37711699760957	1.659277491615732	3.206407148933037	0	0	0	0.783028075795703	-15.17649017350815	33.30772601722706	7.0573203075519	24.88353933948783	0	0.01667903005458089	5.873752268953491	-13.22991602466736	43.89341620636587	6.873293641140647	33.48472301416737	0	0.01667903005458089
7.3125779	13.01745005750844	-20.38727515828242	-29.36448346023273	0.2341366603171506	0.04326292228651554	-1.326684523481465	-22.57117169827992	-1.591976316804377	-3.241458145969817	5.899560354604904	2.451982624139334	1.987972377786656	0	-24.74788768789517	-3.395140484746916	-11.58000132048591	9.793848132074926	-0.4439473045988533	4.250290820099795	0	-21.37711699760957	1.659277491615732	3.206407148933037	0	0	0	0.7823651806296227	-15.17649307075974	33.30858416351333	7.046054472961307	24.88134576892237	0	0.01568072941058139	5.873148729144327	-13.22988695902165	43.8946937735696	6.8617352036327	33.48364256608949	0	0.01568072941058139
7.4644802	9.573872085695452	-21.87545846725775	-43.61492301933465	0.2341366603171506	0.04326292228651554	-1.326684523481465	-22.57117169827992	-1.591976316804377	-3.241458145969817	5.899560354604904	2.451982624139334	1.987972377786656	0	-24.74788768789517	-3.395140484746916	-11.58000132048591	9.793848132074926	-0.4439473045988533	4.250290820099795	0	-21.37711699760957	1.659277491615732	3.206407148933037	0	0	0	0.778770102881817	-15.17650880253621	33.31325145073329	6.983013115955354	24.86935057007998	0	0.01021219926889007	5.869876100592888	-13.22972913534038	43.90164750012788	6.796980099302847	33.47774291378212	0	0.01021219926889007
